# xmcd CD database file
#
# Track frame offsets:
#	150
#	16552
#	43900
#
# Disc length: 4440 seconds
#
# Revision: 0
# Processed by: cddbd v1.5PL3 Copyright (c) Steve Scherf et al.
# Submitted via: CDex 1.51
#
DISCID=18115603
DTITLE=SEX MACHINEGUN - 語れ！涙！
DYEAR=2003
DGENRE=JPop
TTITLE0=語れ！涙！
TTITLE1=渚の警察官
TTITLE2=データ
EXTD=YEAR: 2003
EXTT0=
EXTT1=
EXTT2=
PLAYORDER=
